<svg xmlns="http://www.w3.org/2000/svg" width="1200" height="630" viewBox="0 0 1200 630" role="img" aria-labelledby="title desc">
  <title id="title">Boston Global AI Transformation</title>
  <desc id="desc">Premium social preview for Boston Global AI consulting and automation.</desc>
  <defs>
    <radialGradient id="a" cx="18%" cy="8%" r="74%">
      <stop stop-color="#5CA7FF" stop-opacity="0.45"/>
      <stop offset="0.55" stop-color="#2F6BFF" stop-opacity="0.13"/>
      <stop offset="1" stop-color="#06111F" stop-opacity="0"/>
    </radialGradient>
    <linearGradient id="b" x1="0" y1="0" x2="1" y2="1">
      <stop stop-color="#07182D"/>
      <stop offset="1" stop-color="#020812"/>
    </linearGradient>
    <linearGradient id="c" x1="180" y1="160" x2="310" y2="292" gradientUnits="userSpaceOnUse">
      <stop stop-color="#5CA7FF"/>
      <stop offset="1" stop-color="#2F6BFF"/>
    </linearGradient>
  </defs>
  <rect width="1200" height="630" fill="url(#b)"/>
  <rect width="1200" height="630" fill="url(#a)"/>
  <g opacity="0.12">
    <path d="M0 120h1200M0 240h1200M0 360h1200M0 480h1200M120 0v630M240 0v630M360 0v630M480 0v630M600 0v630M720 0v630M840 0v630M960 0v630M1080 0v630" stroke="#fff"/>
  </g>
  <rect x="88" y="86" width="1024" height="458" rx="44" fill="#fff" fill-opacity="0.07" stroke="#fff" stroke-opacity="0.14"/>
  <rect x="138" y="145" width="92" height="92" rx="26" fill="url(#c)"/>
  <text x="184" y="202" text-anchor="middle" fill="#fff" font-family="Inter, Arial, sans-serif" font-size="28" font-weight="800">BG</text>
  <text x="260" y="183" fill="#9DC5FF" font-family="Inter, Arial, sans-serif" font-size="24" font-weight="800" letter-spacing="4">BOSTON GLOBAL</text>
  <text x="138" y="322" fill="#fff" font-family="Inter, Arial, sans-serif" font-size="76" font-weight="850" letter-spacing="-5">AI Solutions That Help</text>
  <text x="138" y="402" fill="#fff" font-family="Inter, Arial, sans-serif" font-size="76" font-weight="850" letter-spacing="-5">Businesses Work Smarter.</text>
  <text x="142" y="468" fill="#C9D5E6" font-family="Inter, Arial, sans-serif" font-size="28">AI consulting, automation, agents, roadmaps, training, and implementation.</text>
</svg>
